{"asset":{"generator":"Modov11.2","version":"2.0"},"scene":0,"scenes":[{"nodes":[0,1]}],"nodes":[{"name":"L_Quest","matrix":[1.0,0.0,0.0,0.0,0.0,1.0,0.0,0.0,0.0,0.0,1.0,0.0,0.0,0.0,-5.364417798858767e-10,1.0],"mesh":0},{"name":"Camera","matrix":[1.0,0.0,0.0,0.0,0.0,0.9961947202682495,-0.08715574443340302,0.0,0.0,0.08715574443340302,0.9961947202682495,0.0,0.0,0.75,4.0,1.0],"camera":0}],"meshes":[{"primitives":[{"indices":1,"mode":4,"material":1,"attributes":{"POSITION":0,"NORMAL":2,"TEXCOORD_0":3}}]}],"buffers":[{"byteLength":253216,"uri":"L_Quest_Controller.bin"}],"bufferViews":[{"buffer":0,"byteLength":62484},{"buffer":0,"byteLength":86592,"byteOffset":62484},{"buffer":0,"byteLength":62484,"byteOffset":149076},{"buffer":0,"byteLength":41656,"byteOffset":211560}],"accessors":[{"bufferView":0,"type":"VEC3","componentType":5126,"count":5207,"min":[-0.03955623880028725,-0.046112000942230228,0.01476001925766468],"max":[0.04160596430301666,0.05354811251163483,0.13857699930667878]},{"bufferView":1,"type":"SCALAR","componentType":5125,"count":21648},{"bufferView":2,"type":"VEC3","componentType":5126,"count":5207},{"bufferView":3,"type":"VEC2","componentType":5126,"count":5207}],"materials":[{"pbrMetallicRoughness":{"metallicFactor":0.5,"roughnessFactor":0.5}},{"name":"L_Quest_Material","emissiveFactor":[0.0,0.0,0.0],"alphaMode":"OPAQUE","doubleSided":false,"pbrMetallicRoughness":{"baseColorFactor":[1.0,1.0,1.0,1.0],"metallicFactor":1.0,"roughnessFactor":1.0}}],"cameras":[{"name":"Camera","type":"perspective","perspective":{"znear":0.01,"yfov":0.8726}}]}